<svg width="209" height="105" viewBox="0 0 209 105" fill="none" xmlns="http://www.w3.org/2000/svg">
<path d="M1.60469 93.34C1.21802 93.34 1.07135 93.16 1.16469 92.8L9.00469 60.46C9.07135 60.1533 9.25135 60 9.54469 60H14.6447C15.018 60 15.158 60.18 15.0647 60.54L7.24469 92.86C7.16469 93.18 6.98469 93.34 6.70469 93.34H1.60469ZM23.2897 62.44L17.0297 59.84C16.7497 59.7333 16.6697 59.5067 16.7897 59.16L17.7897 56.6C17.9364 56.24 18.163 56.14 18.4697 56.3L24.5297 60C24.8364 60.1867 24.9164 60.42 24.7697 60.7L23.9297 62.2C23.783 62.4667 23.5697 62.5467 23.2897 62.44ZM26.9963 96C26.6629 96 26.4963 95.8333 26.4963 95.5V90.84C26.4963 90.5067 26.6629 90.34 26.9963 90.34H29.6963L34.3963 65.14C34.4629 64.7533 34.6296 64.42 34.8963 64.14L38.6163 60.34C38.8429 60.1133 39.1096 60 39.4163 60H42.6563C42.9896 60 43.1563 60.1667 43.1563 60.5V65.16C43.1563 65.4933 42.9896 65.66 42.6563 65.66H39.9563L35.2563 90.86C35.1896 91.2467 35.0229 91.58 34.7563 91.86L31.0163 95.66C30.8029 95.8867 30.5363 96 30.2163 96H26.9963ZM49.8806 90C49.5806 90 49.4306 89.85 49.4306 89.55V74.7H46.5866C46.2866 74.7 46.1366 74.55 46.1366 74.25V70.65C46.1366 70.35 46.2866 70.2 46.5866 70.2H66.9806C67.2806 70.2 67.4306 70.35 67.4306 70.65V74.25C67.4306 74.55 67.2806 74.7 66.9806 74.7H64.1366L64.1726 85.77L65.2166 85.734C65.5166 85.734 65.6666 85.884 65.6666 86.184L65.7566 89.496C65.7566 89.832 65.6066 90 65.3066 90H63.1826C62.9066 90 62.6666 89.91 62.4626 89.73L58.7726 86.256C58.5446 86.028 58.4306 85.788 58.4306 85.536V75.546C58.4306 74.982 58.1546 74.7 57.6026 74.7H55.1366V89.55C55.1366 89.85 54.9866 90 54.6866 90H49.8806ZM86.2248 82.32H88.9448V83.24C88.9448 84.68 88.6115 85.9733 87.9448 87.12C87.3048 88.24 86.3982 89.2133 85.2248 90.04C84.0515 90.8667 82.6915 91.5467 81.1448 92.08C79.6248 92.64 77.9715 93.0533 76.1848 93.32L74.9848 90.88C76.5848 90.6667 78.0648 90.3467 79.4248 89.92C80.8115 89.4933 81.9982 88.96 82.9848 88.32C83.9982 87.68 84.7848 86.9333 85.3448 86.08C85.9315 85.2267 86.2248 84.28 86.2248 83.24V82.32ZM86.7048 82.32H89.4248V83.24C89.4248 84.28 89.7048 85.2267 90.2648 86.08C90.8248 86.9333 91.6115 87.68 92.6248 88.32C93.6382 88.96 94.8248 89.4933 96.1848 89.92C97.5715 90.3467 99.0515 90.6667 100.625 90.88L99.4648 93.32C97.7048 93.0533 96.0515 92.64 94.5048 92.08C92.9582 91.5467 91.5982 90.8667 90.4248 90.04C89.2515 89.2133 88.3315 88.24 87.6648 87.12C87.0248 85.9733 86.7048 84.68 86.7048 83.24V82.32ZM76.3848 81.52H99.3848V83.96H76.3848V81.52ZM112.166 90C111.866 90 111.716 89.85 111.716 89.55V74.7H108.872C108.572 74.7 108.422 74.55 108.422 74.25V70.65C108.422 70.35 108.572 70.2 108.872 70.2H129.266C129.566 70.2 129.716 70.35 129.716 70.65V74.25C129.716 74.55 129.566 74.7 129.266 74.7H126.422L126.458 85.77L127.502 85.734C127.802 85.734 127.952 85.884 127.952 86.184L128.042 89.496C128.042 89.832 127.892 90 127.592 90H125.468C125.192 90 124.952 89.91 124.748 89.73L121.058 86.256C120.83 86.028 120.716 85.788 120.716 85.536V75.546C120.716 74.982 120.44 74.7 119.888 74.7H117.422V89.55C117.422 89.85 117.272 90 116.972 90H112.166ZM146.117 60.5C146.477 60.5 146.657 60.68 146.657 61.04V63.84C146.657 64.1867 146.477 64.36 146.117 64.36H144.657C144.257 64.36 144.057 64.5267 144.057 64.86V65.46H146.617C146.951 65.46 147.117 65.64 147.117 66L147.077 71.06C147.077 71.42 146.904 71.6 146.557 71.6H140.217C139.884 71.6 139.717 71.42 139.717 71.06V64.94C139.717 63.4333 140.071 62.32 140.777 61.6C141.497 60.8667 142.444 60.5 143.617 60.5H146.117ZM169.41 93.34H164.31C164.03 93.34 163.85 93.18 163.77 92.86L155.95 60.54C155.857 60.18 155.997 60 156.37 60H161.47C161.764 60 161.944 60.1533 162.01 60.46L169.85 92.8C169.957 93.16 169.81 93.34 169.41 93.34Z" fill="#FFF7F3"/>
<mask id="path-2-outside-1_183_55" maskUnits="userSpaceOnUse" x="110" y="22" width="43" height="35" fill="black">
<rect fill="white" x="110" y="22" width="43" height="35"/>
<path d="M137.643 55C135.163 51 130.563 48.88 125.803 48.88C123.203 48.88 120.683 49.64 118.323 50.96L116.923 48.4C118.563 47.6 120.563 46.96 122.403 46.84V46.72C116.643 44.92 111.923 40.88 111.923 33.24C111.923 27.16 114.683 23.16 119.843 23.16C122.803 23.16 124.643 24.6 125.483 26.96H125.683C126.563 24.6 128.523 23.16 131.483 23.16C134.603 23.16 136.443 24.6 137.283 26.96H137.483C138.363 24.6 140.323 23.16 143.163 23.16C148.323 23.16 151.083 27.52 151.083 33.96C151.083 37.36 150.363 40.24 148.883 43.04L145.843 41.92C147.083 39.32 147.483 37 147.483 33.92C147.483 28.76 145.763 26.08 142.883 26.08C140.483 26.08 139.083 27.96 139.083 31.28V37.72H135.723V31.28C135.723 28.28 134.523 26.08 131.483 26.08C128.683 26.08 127.283 27.96 127.283 31.28V37.72H123.923V31.28C123.923 28.28 122.723 26.08 120.083 26.08C117.243 26.08 115.523 28.4 115.523 33.24C115.523 40.68 120.843 44.08 126.563 45.32C131.963 46.48 137.883 48.6 140.323 53.56L137.643 55Z"/>
</mask>
<path d="M137.643 55C135.163 51 130.563 48.88 125.803 48.88C123.203 48.88 120.683 49.64 118.323 50.96L116.923 48.4C118.563 47.6 120.563 46.96 122.403 46.84V46.72C116.643 44.92 111.923 40.88 111.923 33.24C111.923 27.16 114.683 23.16 119.843 23.16C122.803 23.16 124.643 24.6 125.483 26.96H125.683C126.563 24.6 128.523 23.16 131.483 23.16C134.603 23.16 136.443 24.6 137.283 26.96H137.483C138.363 24.6 140.323 23.16 143.163 23.16C148.323 23.16 151.083 27.52 151.083 33.96C151.083 37.36 150.363 40.24 148.883 43.04L145.843 41.92C147.083 39.32 147.483 37 147.483 33.92C147.483 28.76 145.763 26.08 142.883 26.08C140.483 26.08 139.083 27.96 139.083 31.28V37.72H135.723V31.28C135.723 28.28 134.523 26.08 131.483 26.08C128.683 26.08 127.283 27.96 127.283 31.28V37.72H123.923V31.28C123.923 28.28 122.723 26.08 120.083 26.08C117.243 26.08 115.523 28.4 115.523 33.24C115.523 40.68 120.843 44.08 126.563 45.32C131.963 46.48 137.883 48.6 140.323 53.56L137.643 55Z" fill="#FFF7F3"/>
<path d="M137.643 55L136.793 55.5269L137.288 56.3258L138.116 55.8809L137.643 55ZM118.323 50.96L117.445 51.4398L117.93 52.3256L118.811 51.8328L118.323 50.96ZM116.923 48.4L116.484 47.5012L115.543 47.9606L116.045 48.8798L116.923 48.4ZM122.403 46.84L122.468 47.8379L123.403 47.7769V46.84H122.403ZM122.403 46.72H123.403V45.9848L122.701 45.7655L122.403 46.72ZM125.483 26.96L124.541 27.2953L124.777 27.96H125.483V26.96ZM125.683 26.96V27.96H126.377L126.62 27.3094L125.683 26.96ZM137.283 26.96L136.341 27.2953L136.577 27.96H137.283V26.96ZM137.483 26.96V27.96H138.177L138.42 27.3094L137.483 26.96ZM148.883 43.04L148.537 43.9783L149.358 44.2808L149.767 43.5073L148.883 43.04ZM145.843 41.92L144.94 41.4895L144.468 42.4793L145.497 42.8583L145.843 41.92ZM139.083 37.72V38.72H140.083V37.72H139.083ZM135.723 37.72H134.723V38.72H135.723V37.72ZM127.283 37.72V38.72H128.283V37.72H127.283ZM123.923 37.72H122.923V38.72H123.923V37.72ZM126.563 45.32L126.351 46.2973L126.353 46.2977L126.563 45.32ZM140.323 53.56L140.796 54.4409L141.646 53.9843L141.22 53.1186L140.323 53.56ZM138.493 54.4731C135.797 50.125 130.84 47.88 125.803 47.88V49.88C130.285 49.88 134.529 51.875 136.793 55.5269L138.493 54.4731ZM125.803 47.88C123.003 47.88 120.316 48.699 117.835 50.0872L118.811 51.8328C121.049 50.581 123.402 49.88 125.803 49.88V47.88ZM119.2 50.4802L117.8 47.9202L116.045 48.8798L117.445 51.4398L119.2 50.4802ZM117.361 49.2988C118.919 48.5389 120.791 47.9472 122.468 47.8379L122.338 45.8421C120.334 45.9728 118.206 46.6611 116.484 47.5012L117.361 49.2988ZM123.403 46.84V46.72H121.403V46.84H123.403ZM122.701 45.7655C119.943 44.9035 117.503 43.5262 115.758 41.5147C114.027 39.5194 112.923 36.8369 112.923 33.24H110.923C110.923 37.2831 112.178 40.4406 114.247 42.8253C116.302 45.1938 119.103 46.7365 122.104 47.6745L122.701 45.7655ZM112.923 33.24C112.923 30.3342 113.584 28.0537 114.744 26.5243C115.877 25.0317 117.552 24.16 119.843 24.16V22.16C116.973 22.16 114.689 23.2883 113.151 25.3157C111.641 27.3063 110.923 30.0658 110.923 33.24H112.923ZM119.843 24.16C121.157 24.16 122.147 24.4778 122.884 24.994C123.621 25.5101 124.178 26.2755 124.541 27.2953L126.425 26.6247C125.948 25.2845 125.165 24.1499 124.031 23.356C122.898 22.5622 121.488 22.16 119.843 22.16V24.16ZM125.483 27.96H125.683V25.96H125.483V27.96ZM126.62 27.3094C126.996 26.2996 127.586 25.5281 128.362 25.0037C129.14 24.4783 130.167 24.16 131.483 24.16V22.16C129.838 22.16 128.405 22.5617 127.243 23.3462C126.08 24.1319 125.249 25.2604 124.746 26.6106L126.62 27.3094ZM131.483 24.16C132.888 24.16 133.918 24.4828 134.672 24.9997C135.423 25.5147 135.978 26.2766 136.341 27.2953L138.225 26.6247C137.747 25.2834 136.962 24.1453 135.803 23.3503C134.647 22.5572 133.198 22.16 131.483 22.16V24.16ZM137.283 27.96H137.483V25.96H137.283V27.96ZM138.42 27.3094C138.796 26.2988 139.388 25.5248 140.153 24.9997C140.919 24.4743 141.915 24.16 143.163 24.16V22.16C141.57 22.16 140.166 22.5657 139.022 23.3503C137.878 24.1352 137.049 25.2612 136.546 26.6106L138.42 27.3094ZM143.163 24.16C145.419 24.16 147.093 25.0931 148.24 26.7209C149.417 28.3907 150.083 30.864 150.083 33.96H152.083C152.083 30.616 151.369 27.6893 149.875 25.5691C148.352 23.4069 146.066 22.16 143.163 22.16V24.16ZM150.083 33.96C150.083 37.2022 149.4 39.9211 147.999 42.5727L149.767 43.5073C151.325 40.5589 152.083 37.5178 152.083 33.96H150.083ZM149.228 42.1017L146.188 40.9817L145.497 42.8583L148.537 43.9783L149.228 42.1017ZM146.745 42.3505C148.065 39.5843 148.483 37.1093 148.483 33.92H146.483C146.483 36.8907 146.101 39.0557 144.94 41.4895L146.745 42.3505ZM148.483 33.92C148.483 31.2546 148.043 29.0862 147.12 27.55C146.161 25.9543 144.697 25.08 142.883 25.08V27.08C143.949 27.08 144.784 27.5456 145.405 28.58C146.063 29.6738 146.483 31.4254 146.483 33.92H148.483ZM142.883 25.08C141.388 25.08 140.129 25.6829 139.277 26.843C138.455 27.9614 138.083 29.4991 138.083 31.28H140.083C140.083 29.7409 140.41 28.6786 140.889 28.027C141.337 27.4171 141.977 27.08 142.883 27.08V25.08ZM138.083 31.28V37.72H140.083V31.28H138.083ZM139.083 36.72H135.723V38.72H139.083V36.72ZM136.723 37.72V31.28H134.723V37.72H136.723ZM136.723 31.28C136.723 29.6714 136.405 28.1278 135.548 26.9627C134.654 25.7462 133.274 25.08 131.483 25.08V27.08C132.731 27.08 133.471 27.5138 133.937 28.1473C134.44 28.8322 134.723 29.8886 134.723 31.28H136.723ZM131.483 25.08C129.84 25.08 128.474 25.6444 127.548 26.8146C126.654 27.9449 126.283 29.5017 126.283 31.28H128.283C128.283 29.7383 128.611 28.6951 129.117 28.0554C129.591 27.4556 130.325 27.08 131.483 27.08V25.08ZM126.283 31.28V37.72H128.283V31.28H126.283ZM127.283 36.72H123.923V38.72H127.283V36.72ZM124.923 37.72V31.28H122.923V37.72H124.923ZM124.923 31.28C124.923 29.6692 124.604 28.1444 123.819 26.9921C122.999 25.7882 121.727 25.08 120.083 25.08V27.08C121.078 27.08 121.726 27.4718 122.166 28.1179C122.641 28.8156 122.923 29.8908 122.923 31.28H124.923ZM120.083 25.08C118.344 25.08 116.883 25.8143 115.904 27.2927C114.964 28.711 114.523 30.728 114.523 33.24H116.523C116.523 30.912 116.941 29.349 117.571 28.3973C118.162 27.5057 118.981 27.08 120.083 27.08V25.08ZM114.523 33.24C114.523 37.2278 115.961 40.2027 118.21 42.3314C120.432 44.4337 123.383 45.654 126.351 46.2973L126.775 44.3427C124.022 43.746 121.453 42.6463 119.585 40.8786C117.745 39.1373 116.523 36.6922 116.523 33.24H114.523ZM126.353 46.2977C131.757 47.4587 137.215 49.5079 139.425 54.0014L141.22 53.1186C138.55 47.6921 132.168 45.5013 126.773 44.3423L126.353 46.2977ZM139.849 52.6791L137.169 54.1191L138.116 55.8809L140.796 54.4409L139.849 52.6791Z" fill="#FFF7F3" mask="url(#path-2-outside-1_183_55)"/>
</svg>
